<svg xmlns="http://www.w3.org/2000/svg" viewBox="0 0 200 120" width="200" height="120">
  <defs>
    <linearGradient id="ribbonFlowGrad" x1="0%" y1="0%" x2="0%" y2="100%">
      <stop offset="0%" style="stop-color:#00c6ff;stop-opacity:1" /> <stop offset="50%" style="stop-color:#0072ff;stop-opacity:1" /> <stop offset="100%" style="stop-color:#00c6ff;stop-opacity:1" /> </linearGradient>
  </defs>

  <path
    d="
      M 40 20
      Q 25 20, 25 35 L 25 55 Q 25 65, 15 65 Q 25 65, 25 75 L 25 95 Q 25 110, 40 110

      Q 60 110, 80 80 T 125 35

      L 90 52 L 125 69

      Q 105 69, 105 80 T 85 80

      L 120 97 L 85 114

      Q 110 114, 130 80 T 160 20

      Q 175 20, 175 35 L 175 55 Q 175 65, 185 65 Q 175 65, 175 75 L 175 95 Q 175 110, 160 110
    "
    fill="none"
    stroke="url(#ribbonFlowGrad)"
    stroke-width="5"
    stroke-linecap="round"
    stroke-linejoin="round"
  />
</svg>